<svg stroke-width="2" xmlns="http://www.w3.org/2000/svg" height="300px" width="300px">
<radialGradient gradientUnits="userSpaceOnUse" r="150" cy="150" cx="150" id="dark">
  <stop offset=".3" stop-color="#404a56"></stop>
  <stop offset=".7" stop-color="#303a46"></stop>
</radialGradient>
<radialGradient gradientUnits="userSpaceOnUse" r="150" cy="150" cx="150" id="white">
  <stop offset=".3" stop-color="#ddd"></stop>
  <stop offset=".6" stop-color="#fff"></stop>
  <stop offset=".9" stop-color="#ddd"></stop>
</radialGradient>

<path stroke="#303a46" fill="url(#dark)" d="M206 5C206 5 178 19 150 19C122 19 94 5 94 5L150 140Z"></path>
<path stroke="#bdbdbd" fill="url(#white)" d="M87 8C87 8 77 38 57 58C38 77 8 87 8 87L143 143Z"></path>
<path stroke="#303a46" fill="url(#dark)" d="M295 206C295 206 281 178 281 150C281 122 295 94 295 94L160 150Z"></path>
<path stroke="#bdbdbd" fill="url(#white)" d="M292 87C292 87 262 77 242 57C223 38 213 8 213 8L157 143Z"></path>
<path stroke="#303a46" fill="url(#dark)" d="M94 295C94 295 122 281 150 281C178 281 206 295 206 295L150 160Z"></path>
<path stroke="#bdbdbd" fill="url(#white)" d="M213 292C213 292 223 262 243 242C262 223 292 213 292 213L157 157Z"></path>
<path stroke="#303a46" fill="url(#dark)" d="M5 94C5 94 19 122 19 150C19 178 5 206 5 206L140 150Z"></path>
<path stroke="#bdbdbd" fill="url(#white)" d="M8 213C8 213 38 223 58 243C77 262 87 292 87 292L143 157Z"></path>
</svg>
